<svg width="30" height="30" viewBox="0 0 30 30" fill="none" xmlns="http://www.w3.org/2000/svg">
<path d="M23.4996 21.5432C23.7849 21.8517 23.9396 22.2587 23.9314 22.6788C23.9233 23.0989 23.7528 23.4995 23.4558 23.7967C23.1588 24.094 22.7583 24.2647 22.3382 24.2731C21.9181 24.2816 21.511 24.1271 21.2023 23.8421L15.0001 17.64L8.79804 23.8421C8.64938 24.0029 8.46978 24.132 8.27001 24.2217C8.07024 24.3114 7.85441 24.3599 7.63547 24.3641C7.41652 24.3684 7.19897 24.3284 6.99586 24.2465C6.79276 24.1646 6.60827 24.0426 6.45348 23.8877C6.29869 23.7328 6.17677 23.5482 6.09504 23.3451C6.01332 23.1419 5.97346 22.9243 5.97787 22.7054C5.98228 22.4864 6.03085 22.2706 6.12069 22.0709C6.21053 21.8712 6.33977 21.6917 6.50067 21.5432L12.7028 15.3411L6.50067 9.14211C6.33977 8.99356 6.21053 8.81405 6.12069 8.61434C6.03085 8.41463 5.98228 8.19883 5.97787 7.97989C5.97346 7.76095 6.01332 7.54337 6.09504 7.34021C6.17677 7.13704 6.29869 6.95248 6.45348 6.79758C6.60827 6.64268 6.79276 6.52064 6.99586 6.43877C7.19897 6.3569 7.41652 6.3169 7.63547 6.32115C7.85441 6.32541 8.07024 6.37384 8.27001 6.46354C8.46978 6.55324 8.64938 6.68236 8.79804 6.84316L15.0001 13.0437L21.2023 6.84158C21.511 6.55655 21.9181 6.40208 22.3382 6.41054C22.7583 6.41899 23.1588 6.58972 23.4558 6.88694C23.7528 7.18416 23.9233 7.5848 23.9314 8.00491C23.9396 8.42502 23.7849 8.83199 23.4996 9.14053L17.2975 15.3411L23.4996 21.5432Z" fill="white"/>
</svg>
