<svg xmlns="http://www.w3.org/2000/svg" width="49" height="67" viewBox="0 0 49 67" fill="none">
  <path d="M3.14062 67H45.0156C46.7472 67 48.1562 65.5909 48.1562 63.8594V21.9844C48.1562 20.2528 46.7472 18.8438 45.0156 18.8438H39.7812C39.2034 18.8438 38.7344 19.3128 38.7344 19.8906C38.7344 20.4685 39.2034 20.9375 39.7812 20.9375H45.0156C45.5914 20.9375 46.0625 21.4065 46.0625 21.9844V63.8594C46.0625 64.4372 45.5914 64.9062 45.0156 64.9062H3.14062C2.56484 64.9062 2.09375 64.4372 2.09375 63.8594V21.9844C2.09375 21.4065 2.56484 20.9375 3.14062 20.9375H8.375C8.95288 20.9375 9.42188 20.4685 9.42188 19.8906C9.42188 19.3128 8.95288 18.8438 8.375 18.8438H3.14062C1.40909 18.8438 0 20.2528 0 21.9844V63.8594C0 65.5909 1.40909 67 3.14062 67Z" fill="white"/>
  <path d="M13.6094 28.2656C14.1873 28.2656 14.6562 27.7966 14.6562 27.2188V12.0684C14.6562 6.56809 18.8835 2.09375 24.0781 2.09375C29.2727 2.09375 33.5 6.56809 33.5 12.0684V27.2188C33.5 27.7966 33.969 28.2656 34.5469 28.2656C35.1248 28.2656 35.5938 27.7966 35.5938 27.2188V12.0684C35.5938 5.41444 30.4264 0 24.0781 0C17.7299 0 12.5625 5.41444 12.5625 12.0684V27.2188C12.5625 27.7966 13.0315 28.2656 13.6094 28.2656Z" fill="white"/>
  <path d="M18.8438 18.8438C18.2659 18.8438 17.7969 19.3128 17.7969 19.8906C17.7969 20.4685 18.2659 20.9375 18.8438 20.9375H29.3125C29.8904 20.9375 30.3594 20.4685 30.3594 19.8906C30.3594 19.3128 29.8904 18.8438 29.3125 18.8438H18.8438Z" fill="white"/>
</svg>